<?xml version="1.0" encoding="UTF-8"?>
<svg xmlns="http://www.w3.org/2000/svg" xmlns:xlink="http://www.w3.org/1999/xlink" width="360px" height="360px" viewBox="0 0 360 360" version="1.2">
<g id="surface21839">
<path style="fill:none;stroke-width:30;stroke-linecap:round;stroke-linejoin:round;stroke:rgb(15.686275%,20%,18.82353%);stroke-opacity:1;stroke-miterlimit:10;" d="M 40 40 C 40 40 160 40 160 40 C 160 40 160 40 160 160 C 160 160 40 160 40 160 C 40 160 40 160 40 40 "/>
<path style="fill:none;stroke-width:30;stroke-linecap:round;stroke-linejoin:round;stroke:rgb(15.686275%,20%,18.82353%);stroke-opacity:1;stroke-miterlimit:10;" d="M 200 40 L 320 40 L 320 160 L 200 160 L 200 40 "/>
<path style="fill:none;stroke-width:30;stroke-linecap:round;stroke-linejoin:round;stroke:rgb(15.686275%,20%,18.82353%);stroke-opacity:1;stroke-miterlimit:10;" d="M 40 200 C 40 200 160 200 160 200 C 160 200 160 200 160 320 C 160 320 40 320 40 320 C 40 320 40 320 40 200 "/>
<path style="fill:none;stroke-width:30;stroke-linecap:round;stroke-linejoin:round;stroke:rgb(15.686275%,20%,18.82353%);stroke-opacity:1;stroke-miterlimit:10;" d="M 200 200 C 200 200 280 200 280 200 C 280 200 280 200 280 280 C 280 280 200 280 200 280 C 200 280 200 280 200 200 "/>
</g>
</svg>
