<?xml version="1.0" encoding="UTF-8" standalone="no"?>
<svg
   width="400"
   height="400"
   viewBox="0 0 105.83333 105.83333"
   version="1.1"
   id="svg8"
   xmlns="http://www.w3.org/2000/svg"
   xmlns:svg="http://www.w3.org/2000/svg"
   xmlns:rdf="http://www.w3.org/1999/02/22-rdf-syntax-ns#"
   xmlns:cc="http://creativecommons.org/ns#"
   xmlns:dc="http://purl.org/dc/elements/1.1/">
  <defs
     id="defs2" />
  <metadata
     id="metadata5">
    <rdf:RDF>
      <cc:Work
         rdf:about="">
        <dc:format>image/svg+xml</dc:format>
        <dc:type
           rdf:resource="http://purl.org/dc/dcmitype/StillImage" />
      </cc:Work>
    </rdf:RDF>
  </metadata>
  <g
     id="layer1"
     transform="translate(-36.050202,-25.104523)">
    <g
       id="g868"
       transform="matrix(0.73269251,0,0,0.73269251,26.688194,8.415656)"
       style="fill:#999999">
      <path
         id="path1"
         style="display:inline;fill:#BBBBBB;fill-opacity:1;stroke-width:0.151588"
         d="m 117.49974,102.22187 a 25.277786,25.277786 0 0 0 -25.27778,25.27777 25.277786,25.277786 0 0 0 25.27778,25.27777 25.277786,25.277786 0 0 0 25.27777,-25.27777 25.277786,25.277786 0 0 0 -25.27777,-25.27777 z m 0.036,12.67485 a 12.638885,12.638885 0 0 1 12.63888,12.63889 12.638885,12.638885 0 0 1 -12.63888,12.63888 12.638885,12.638885 0 0 1 -12.6389,-12.63888 12.638885,12.638885 0 0 1 12.6389,-12.63889 z" />
      <path
         id="path857"
         style="fill:#888888;stroke-width:0.216552"
         d="M 50.333397,93.555206 A 36.111124,36.111124 0 0 0 14.221984,129.66662 36.111124,36.111124 0 0 0 50.333397,165.77741 36.111124,36.111124 0 0 0 86.444184,129.66662 36.111124,36.111124 0 0 0 50.333397,93.555206 Z m -0.09642,12.036934 a 24.074082,24.074082 0 0 1 0.09642,0 24.074082,24.074082 0 0 1 24.073854,24.07448 24.074082,24.074082 0 0 1 -24.073854,24.07386 24.074082,24.074082 0 0 1 -24.07448,-24.07386 24.074082,24.074082 0 0 1 23.978063,-24.07448 z m 0.09642,12.03755 A 12.037041,12.037041 0 0 0 38.29585,129.66662 12.037041,12.037041 0 0 0 50.333397,141.70354 12.037041,12.037041 0 0 0 62.37033,129.66662 12.037041,12.037041 0 0 0 50.333397,117.62969 Z" />
      <path
         id="path855"
         style="fill:#888888;stroke-width:0.216552"
         d="M 119.66671,24.221894 A 36.111124,36.111126 0 0 0 83.555296,60.333305 36.111124,36.111126 0 0 0 119.66671,96.444094 36.111124,36.111126 0 0 0 155.7775,60.333305 36.111124,36.111126 0 0 0 119.66671,24.221894 Z m -0.0964,12.036929 a 24.074082,24.074083 0 0 1 0.0964,0 24.074082,24.074083 0 0 1 24.07386,24.074482 A 24.074082,24.074083 0 0 1 119.66671,84.407161 24.074082,24.074083 0 0 1 95.592226,60.333305 24.074082,24.074083 0 0 1 119.5703,36.258823 Z m 0.0964,12.037553 a 12.037041,12.037042 0 0 0 -12.03754,12.036929 12.037041,12.037042 0 0 0 12.03754,12.036929 12.037041,12.037042 0 0 0 12.03694,-12.036929 12.037041,12.037042 0 0 0 -12.03694,-12.036929 z" />
      <path
         id="path846"
         style="fill:#BBBBBB;stroke-width:0.216552"
         d="m 50.333394,24.221894 a 36.111126,36.111126 0 0 0 -36.11141,36.11141 36.111126,36.111126 0 0 0 36.11141,36.11079 36.111126,36.111126 0 0 0 36.11079,-36.11079 36.111126,36.111126 0 0 0 -36.11079,-36.11141 z m -0.09641,12.036929 a 24.074083,24.074083 0 0 1 0.09641,0 A 24.074083,24.074083 0 0 1 74.407253,60.333304 24.074083,24.074083 0 0 1 50.333394,84.407162 24.074083,24.074083 0 0 1 26.258913,60.333304 24.074083,24.074083 0 0 1 50.236982,36.258823 Z m 0.09641,12.037552 a 12.037042,12.037042 0 0 0 -12.037552,12.036929 12.037042,12.037042 0 0 0 12.037552,12.03693 12.037042,12.037042 0 0 0 12.03693,-12.03693 12.037042,12.037042 0 0 0 -12.03693,-12.036929 z" />
    </g>
  </g>
</svg>
