<?xml version="1.0" encoding="UTF-8"?>
<svg xmlns="http://www.w3.org/2000/svg" xmlns:xlink="http://www.w3.org/1999/xlink" width="360px" height="360px" viewBox="0 0 360 360" version="1.2">
<g id="surface77591">
<path style="fill:none;stroke-width:30;stroke-linecap:round;stroke-linejoin:round;stroke:rgb(15.686275%,20%,18.82353%);stroke-opacity:1;stroke-miterlimit:10;" d="M 240 280 L 320 280 "/>
<path style="fill:none;stroke-width:30;stroke-linecap:round;stroke-linejoin:round;stroke:rgb(15.686275%,20%,18.82353%);stroke-opacity:1;stroke-miterlimit:10;" d="M 280 320 L 280 240 "/>
<path style="fill:none;stroke-width:30;stroke-linecap:round;stroke-linejoin:round;stroke:rgb(15.686275%,20%,18.82353%);stroke-opacity:1;stroke-miterlimit:10;" d="M 200 280 L 60 280 L 40 260 L 40 60 L 60 40 L 260 40 L 280 60 L 280 200 "/>
<path style="fill:none;stroke-width:30;stroke-linecap:round;stroke-linejoin:round;stroke:rgb(15.686275%,20%,18.82353%);stroke-opacity:1;stroke-miterlimit:10;" d="M 80 80 L 120 80 L 120 120 L 80 120 L 80 80 "/>
<path style="fill:none;stroke-width:30;stroke-linecap:round;stroke-linejoin:round;stroke:rgb(15.686275%,20%,18.82353%);stroke-opacity:1;stroke-miterlimit:10;" d="M 200 80 L 240 80 L 240 120 L 200 120 L 200 80 "/>
<path style="fill:none;stroke-width:30;stroke-linecap:round;stroke-linejoin:round;stroke:rgb(15.686275%,20%,18.82353%);stroke-opacity:1;stroke-miterlimit:10;" d="M 80 240 L 80 200 L 120 200 L 120 240 L 80 240 "/>
<path style="fill:none;stroke-width:30;stroke-linecap:round;stroke-linejoin:round;stroke:rgb(15.686275%,20%,18.82353%);stroke-opacity:1;stroke-miterlimit:10;" d="M 200 200 L 200 220 L 220 220 L 220 200 L 200 200 "/>
</g>
</svg>
