<?xml version="1.0" encoding="UTF-8"?>
<svg xmlns="http://www.w3.org/2000/svg" xmlns:xlink="http://www.w3.org/1999/xlink" width="360px" height="360px" viewBox="0 0 360 360" version="1.2">
<g id="surface133735">
<path style="fill:none;stroke-width:30;stroke-linecap:round;stroke-linejoin:round;stroke:rgb(15.686275%,20%,18.82353%);stroke-opacity:1;stroke-miterlimit:10;" d="M 280 320 L 280 240 "/>
<path style="fill:none;stroke-width:30;stroke-linecap:round;stroke-linejoin:round;stroke:rgb(15.686275%,20%,18.82353%);stroke-opacity:1;stroke-miterlimit:10;" d="M 240 280 L 320 280 "/>
<path style="fill:none;stroke-width:30;stroke-linecap:round;stroke-linejoin:round;stroke:rgb(15.686275%,20%,18.82353%);stroke-opacity:1;stroke-miterlimit:10;" d="M 200 280 L 60 280 L 40 260 L 40 60 L 60 40 L 260 40 L 280 60 L 280 200 "/>
<path style="fill:none;stroke-width:30;stroke-linecap:round;stroke-linejoin:round;stroke:rgb(15.686275%,20%,18.82353%);stroke-opacity:1;stroke-miterlimit:10;" d="M 100 100 L 140 100 L 140 140 L 100 140 L 100 100 "/>
<path style="fill:none;stroke-width:30;stroke-linecap:round;stroke-linejoin:round;stroke:rgb(15.686275%,20%,18.82353%);stroke-opacity:1;stroke-miterlimit:10;" d="M 180 100 L 220 100 L 220 140 L 180 140 L 180 100 "/>
<path style="fill:none;stroke-width:30;stroke-linecap:round;stroke-linejoin:round;stroke:rgb(15.686275%,20%,18.82353%);stroke-opacity:1;stroke-miterlimit:10;" d="M 100 180 L 140 180 L 140 220 L 100 220 L 100 180 "/>
<path style="fill:none;stroke-width:30;stroke-linecap:round;stroke-linejoin:round;stroke:rgb(15.686275%,20%,18.82353%);stroke-opacity:1;stroke-miterlimit:10;" d="M 180 180 L 180 200 L 200 200 L 200 180 L 180 180 "/>
</g>
</svg>
